# xmcd
#
# Track frame offsets: 
#        150
#        24713
#        57502
#        86783
#        122368
#
# Disc length: 2008 seconds
#
# Revision: 4
# Processed by: cddbd v1.5.2PL0 Copyright (c) Steve Scherf et al.
# Submitted via: ExactAudioCopy v1.0b2
#
DISCID=3c07d605
DTITLE=Destiny´s Child - Soldier
DYEAR=2005
DGENRE=R&B
TTITLE0=Soldier  ft.T.I. and Lil Wayne (Album Version)
TTITLE1=Soldier  ft.T.I. and Lil Wayne (Maurice´s Nu Soul Mix)
TTITLE2=Soldier  ft.T.I. and Lil Wayne (Danny Howells and Dick Trevour's
TTITLE2=Kinkfunk Mix)
TTITLE3=Soldier  ft.T.I. and Lil Wayne (Grizz Blackmarket Remix)
TTITLE4=Daten-CD
EXTD=
EXTT0=
EXTT1=
EXTT2=
EXTT3=
EXTT4=
PLAYORDER=
